{"title":"Veppam(2011) Tamil 1CD TCRip XviD MP3-=MTR=-","uid":6574597,"size":773799274,"categoryP":"video","categoryS":"movies","magnet":"?xt=urn:btih:8192ef715e51ab3496423e30a161fe5e176f7de4&amp;dn=Veppam%282011%29+Tamil+1CD+TCRip+XviD+MP3-%3DMTR%3D-&amp;tr=udp%3A%2F%2Ftracker.openbittorrent.com%3A80&amp;tr=udp%3A%2F%2Fopen.demonii.com%3A1337&amp;tr=udp%3A%2F%2Ftracker.coppersurfer.tk%3A6969&amp;tr=udp%3A%2F%2Fexodus.desync.com%3A6969","seeders":0,"leechers":1,"uploader":"HDvideos","files":-1,"time":1312136931,"description":"Veppam(2011) Tamil 1CD TCRip XviD MP3-=MTR=-\n\nCheck out MY latest Uploads:\n &lt;a href=&quot;\nhttp://thepiratebay.se/user/HDvideos/0/7&quot; rel=&quot;nofollow&quot; target=&quot;_NEW&quot;&gt;\nhttp://thepiratebay.se/user/HDvideos/0/7&lt;/a&gt;\n\nStay updated with us....\n\nSeed after downloading....\n\nEnjoY with HDvideos..\n\nTeam Mastitorrents\n\nSay thanks if u like my posts\n\nGive ur valuable feedbacks\n\nQuality Uploads from HDvideos\n\n-=MT=-Uploader-=HDvideos=-\n\nRecommended Player:VLC Player\n\nVideo\nID                               : 0\nFormat                           : MPEG-4 Visual\nFormat profile                   : Advanced Simple@L5\nFormat settings, BVOP            : 2\nFormat settings, QPel            : No\nFormat settings, GMC             : No warppoints\nFormat settings, Matrix          : Default (H.263)\nCodec ID                         : XVID\nCodec ID/Hint                    : XviD\nDuration                         : 1h 44mn\nBit rate                         : 853 Kbps\nWidth                            : 608 pixels\nHeight                           : 256 pixels\nDisplay aspect ratio             : 2.35:1\nFrame rate                       : 29.970 fps\nColor space                      : YUV\nChroma subsampling               : 4:2:0\nBit depth                        : 8 bits\nScan type                        : Progressive\nCompression mode                 : Lossy\nBits/(Pixel*Frame)               : 0.183\nStream size                      : 637 MiB (86%)\nWriting library                  : XviD 1.2.1 (UTC 2008-12-04)\n\nAudio\nID                               : 1\nFormat                           : MPEG Audio\nFormat version                   : Version 1\nFormat profile                   : Layer 3\nMode                             : Joint stereo\nMode extension                   : MS Stereo\nCodec ID                         : 55\nCodec ID/Hint                    : MP3\nDuration                         : 1h 44mn\nBit rate mode                    : Constant\nBit rate                         : 128 Kbps\nChannel(s)                       : 2 channels\nSampling rate                    : 48.0 KHz\nCompression mode                 : Lossy\nStream size                      : 95.6 MiB (13%)\nAlignment                        : Aligned on interleaves\nInterleave, duration             : 133 ms (4.00 video frames)\nInterleave, preload duration     : 216 ms\nTitle                            : veppam T80 2_0ch 192Kbps DELAY 0ms\nWriting library                  : LAME3.98r\n\n","torrent":{"xt":"urn:btih:8192ef715e51ab3496423e30a161fe5e176f7de4","amp;dn":"Veppam%282011%29+Tamil+1CD+TCRip+XviD+MP3-%3DMTR%3D-","amp;tr":["udp%3A%2F%2Ftracker.openbittorrent.com%3A80","udp%3A%2F%2Fopen.demonii.com%3A1337","udp%3A%2F%2Ftracker.coppersurfer.tk%3A6969","udp%3A%2F%2Fexodus.desync.com%3A6969"],"infoHash":"8192ef715e51ab3496423e30a161fe5e176f7de4","infoHashBuffer":{"type":"Buffer","data":[129,146,239,113,94,81,171,52,150,66,62,48,161,97,254,94,23,111,125,228]},"announce":[],"urlList":[]}}